Coordinates
version=1
nRows=17
nColumns=40
inDegrees=yes

Units are S.I. units (second, meters, Newtons, ...)
If the header above contains a line with 'inDegrees', this indicates whether rotational values are in degrees (yes) or radians (no).

endheader
time	pelvis_tilt	pelvis_list	pelvis_rotation	pelvis_tx	pelvis_ty	pelvis_tz	hip_flexion_r	hip_adduction_r	hip_rotation_r	knee_angle_r	knee_angle_r_beta	ankle_angle_r	subtalar_angle_r	mtp_angle_r	hip_flexion_l	hip_adduction_l	hip_rotation_l	knee_angle_l	knee_angle_l_beta	ankle_angle_l	subtalar_angle_l	mtp_angle_l	lumbar_extension	lumbar_bending	lumbar_rotation	arm_flex_r	arm_add_r	arm_rot_r	elbow_flex_r	pro_sup_r	wrist_flex_r	wrist_dev_r	arm_flex_l	arm_add_l	arm_rot_l	elbow_flex_l	pro_sup_l	wrist_flex_l	wrist_dev_l
      1.77000000	     -3.65613509	      9.50386303	    -89.82768658	      0.10522419	      0.90969734	     -0.11592143	     -4.69972042	      8.79233258	     -2.04583768	      5.31098785	      0.09269422	     11.68576505	      0.00000000	     -0.00000000	     33.07323555	     -1.62094421	     -3.45970171	      1.25282587	      0.02186594	     -0.43561736	      0.00000000	      0.00000000	      4.09517406	      3.21420696	     -2.40485259	     -0.00000000	      0.00000000	     -0.00000000	      0.00000000	      0.00000000	      0.00000000	      0.00000000	     -0.00000000	      0.00000000	     -0.00000000	      0.00000000	      0.00000000	     -0.00000000	     -0.00000000
      1.78000000	     -3.42387087	      9.56576476	    -89.83420929	      0.10588673	      0.90872024	     -0.10683948	     -5.21391019	      8.47240636	     -2.03064181	      5.40362792	      0.09431110	     11.85211462	      0.00000000	      0.00000000	     33.12904469	     -1.27693588	     -3.45724573	      1.75202880	      0.03057867	     -0.98752569	      0.00000000	      0.00000000	      4.22742907	      2.91475224	     -2.44191946	      0.00000000	      0.00000000	      0.00000000	      0.00000000	      0.00000000	      0.00000000	      0.00000000	      0.00000000	      0.00000000	      0.00000000	      0.00000000	      0.00000000	      0.00000000	      0.00000000
      1.79000000	     -3.17352628	      9.67083190	    -89.83955358	      0.10654423	      0.90774256	     -0.09769937	     -5.62047597	      8.12205528	     -2.06953664	      5.60471779	      0.09782078	     11.94054461	      0.00000000	      0.00000000	     33.25916860	     -0.93161290	     -3.32420920	      2.43433743	      0.04248720	     -1.61510007	      0.00000000	      0.00000000	      4.40477860	      2.55076540	     -2.45514258	      0.00000000	      0.00000000	      0.00000000	      0.00000000	      0.00000000	      0.00000000	      0.00000000	      0.00000000	      0.00000000	      0.00000000	      0.00000000	      0.00000000	      0.00000000	      0.00000000
      1.80000000	     -2.92952285	      9.78221404	    -89.84443434	      0.10731220	      0.90684475	     -0.08848110	     -5.96482251	      7.76760989	     -2.10859157	      5.91731205	      0.10327658	     11.91925999	      0.00000000	      0.00000000	     33.38848270	     -0.59353485	     -3.10765824	      3.21361288	      0.05608813	     -2.25891706	      0.00000000	      0.00000000	      4.60938508	      2.24158269	     -2.48614658	      0.00000000	      0.00000000	      0.00000000	      0.00000000	      0.00000000	      0.00000000	      0.00000000	      0.00000000	      0.00000000	      0.00000000	      0.00000000	      0.00000000	      0.00000000	      0.00000000
      1.81000000	     -2.67136535	      9.87663897	    -89.84923510	      0.10809922	      0.90604104	     -0.07917620	     -6.28119447	      7.38788569	     -2.15458998	      6.30549625	      0.11005167	     11.84810958	      0.00000000	      0.00000000	     33.50555497	     -0.25349020	     -2.95109454	      4.09281323	      0.07143307	     -2.98359135	      0.00000000	      0.00000000	      4.78656651	      1.89441989	     -2.50046650	      0.00000000	      0.00000000	      0.00000000	      0.00000000	      0.00000000	      0.00000000	      0.00000000	      0.00000000	      0.00000000	      0.00000000	      0.00000000	      0.00000000	      0.00000000	      0.00000000
      1.82000000	     -2.37121791	      9.89902561	    -89.85660649	      0.10894867	      0.90542048	     -0.06974697	     -6.61163238	      6.94069819	     -2.35419669	      6.81208587	      0.11889333	     11.81311193	      0.00000000	      0.00000000	     33.59660743	      0.09492395	     -3.21317821	      5.13249578	      0.08957895	     -3.86031103	      0.00000000	      0.00000000	      4.89464813	      1.51042989	     -2.52595102	      0.00000000	      0.00000000	      0.00000000	      0.00000000	      0.00000000	      0.00000000	      0.00000000	      0.00000000	      0.00000000	      0.00000000	      0.00000000	      0.00000000	      0.00000000	      0.00000000
      1.83000000	     -2.15009233	      9.96569086	    -89.85920179	      0.10981067	      0.90487701	     -0.06029084	     -6.84819435	      6.57973512	     -2.34444234	      7.38967268	      0.12897412	     11.48879587	      0.00000000	      0.00000000	     33.64704373	      0.39235862	     -2.85496661	      6.08494069	      0.10620225	     -4.52011066	     -0.00000000	     -0.00000000	      5.05520954	      1.21838730	     -2.56150652	      0.00000000	     -0.00000000	      0.00000000	      0.00000000	      0.00000000	      0.00000000	     -0.00000000	      0.00000000	      0.00000000	     -0.00000000	      0.00000000	      0.00000000	      0.00000000	      0.00000000
      1.84000000	     -1.88919833	      9.96660927	    -89.86435540	      0.11071204	      0.90449623	     -0.05075688	     -7.02887801	      6.13672878	     -2.66261678	      8.18639268	      0.14287951	     11.15614702	      0.00000000	      0.00000000	     33.72660060	      0.68270116	     -3.08283017	      7.26731124	      0.12683851	     -5.32756062	      0.00000000	      0.00000000	      5.14072793	      0.88225877	     -2.57352633	      0.00000000	      0.00000000	      0.00000000	      0.00000000	      0.00000000	      0.00000000	      0.00000000	      0.00000000	      0.00000000	      0.00000000	      0.00000000	      0.00000000	      0.00000000	      0.00000000
      1.85000000	     -1.68550778	      9.96715900	    -89.86739464	      0.11161952	      0.90426867	     -0.04117828	     -7.14779784	      5.74910444	     -2.84389539	      9.08017102	      0.15847888	     10.62900493	      0.00000000	      0.00000000	     33.74205733	      0.92703585	     -3.03360532	      8.37705106	      0.14620712	     -5.96802561	      0.00000000	      0.00000000	      5.23333462	      0.61168569	     -2.58943570	      0.00000000	      0.00000000	      0.00000000	      0.00000000	      0.00000000	      0.00000000	      0.00000000	      0.00000000	      0.00000000	      0.00000000	      0.00000000	      0.00000000	      0.00000000	      0.00000000
      1.86000000	     -1.53182113	      9.94158404	    -89.87035130	      0.11249558	      0.90423694	     -0.03154269	     -7.25761394	      5.42122084	     -2.83946398	     10.01374894	      0.17477289	      9.94131799	      0.00000000	      0.00000000	     33.66213390	      1.13683413	     -2.80161498	      9.39410419	      0.16395805	     -6.50796358	      0.00000000	      0.00000000	      5.30428995	      0.38609208	     -2.61250588	      0.00000000	      0.00000000	      0.00000000	      0.00000000	      0.00000000	      0.00000000	      0.00000000	      0.00000000	      0.00000000	      0.00000000	      0.00000000	      0.00000000	      0.00000000	      0.00000000
      1.87000000	     -1.38608933	      9.85638445	    -89.87269968	      0.11349563	      0.90442212	     -0.02188044	     -7.32656115	      5.07500086	     -2.84425315	     11.12203380	      0.19411611	      9.07310325	      0.00000000	      0.00000000	     33.52140463	      1.33585222	     -2.63920426	     10.44316157	      0.18226755	     -7.00936876	      0.00000000	      0.00000000	      5.29088878	      0.21932438	     -2.63525639	      0.00000000	      0.00000000	      0.00000000	      0.00000000	      0.00000000	      0.00000000	      0.00000000	      0.00000000	      0.00000000	      0.00000000	      0.00000000	      0.00000000	      0.00000000	      0.00000000
      1.88000000	     -1.24652260	      9.77935250	    -89.87504997	      0.11442119	      0.90468256	     -0.01222126	     -7.14039800	      4.65271039	     -3.43817708	     12.65339510	      0.22084341	      8.08696569	      0.00000000	     -0.00000000	     33.44598995	      1.47183094	     -2.92217954	     11.61528684	      0.20272500	     -7.28231339	      0.00000000	      0.00000000	      5.30528925	      0.00991505	     -2.65503311	     -0.00000000	     -0.00000000	      0.00000000	      0.00000000	      0.00000000	      0.00000000	     -0.00000000	     -0.00000000	      0.00000000	      0.00000000	      0.00000000	      0.00000000	      0.00000000	      0.00000000
      1.89000000	     -1.17887120	      9.67151633	    -89.87692226	      0.11535642	      0.90518750	     -0.00257438	     -6.95746202	      4.32727824	     -3.62089123	     14.19898070	      0.24781896	      6.95436865	      0.00000000	      0.00000000	     33.23609626	      1.57164383	     -2.88807054	     12.61017903	      0.22008914	     -7.47241189	      0.00000000	      0.00000000	      5.27316528	     -0.09625080	     -2.66433302	      0.00000000	      0.00000000	      0.00000000	      0.00000000	      0.00000000	      0.00000000	      0.00000000	      0.00000000	      0.00000000	      0.00000000	      0.00000000	      0.00000000	      0.00000000	      0.00000000
      1.90000000	     -1.11601406	      9.54852287	    -89.87790571	      0.11631020	      0.90583726	      0.00708125	     -6.65294231	      3.97968332	     -3.83878913	     15.96938863	      0.27871841	      5.68943574	     -0.00000000	      0.00000000	     32.98059408	      1.66504605	     -2.86476977	     13.57040020	      0.23684816	     -7.52549042	     -0.00000000	      0.00000000	      5.22930973	     -0.19209986	     -2.70091337	     -0.00000000	      0.00000000	      0.00000000	      0.00000000	      0.00000000	     -0.00000000	     -0.00000000	      0.00000000	      0.00000000	     -0.00000000	      0.00000000	      0.00000000	      0.00000000	     -0.00000000
      1.91000000	     -1.18661899	      9.29779055	    -89.87925496	      0.11716251	      0.90687773	      0.01672345	     -6.46885241	      3.81939604	     -3.70045844	     17.70013627	      0.30892566	      4.30230289	      0.00000000	      0.00000000	     32.49937379	      1.63493826	     -2.70988395	     14.37344347	      0.25086391	     -7.58214703	      0.00000000	      0.00000000	      5.02976734	     -0.13883766	     -2.73238601	      0.00000000	      0.00000000	      0.00000000	      0.00000000	      0.00000000	      0.00000000	      0.00000000	      0.00000000	      0.00000000	      0.00000000	      0.00000000	      0.00000000	      0.00000000	      0.00000000
      1.92000000	     -1.10432666	      9.18876578	    -89.88013244	      0.11823854	      0.90770716	      0.02620021	     -5.79772200	      3.33481795	     -4.25283632	     20.03597888	      0.34969380	      2.78871996	      0.00000000	      0.00000000	     32.20992072	      1.74591633	     -2.84011674	     15.24085601	      0.26600312	     -7.28803492	      0.00000000	      0.00000000	      4.98486888	     -0.24203507	     -2.75617711	      0.00000000	      0.00000000	      0.00000000	      0.00000000	      0.00000000	      0.00000000	      0.00000000	      0.00000000	      0.00000000	      0.00000000	      0.00000000	      0.00000000	      0.00000000	      0.00000000
      1.93000000	     -1.12451767	      9.04818765	    -89.88098601	      0.11920405	      0.90873147	      0.03559417	     -5.08418212	      3.00683152	     -4.40552165	     22.44437615	      0.39172826	      1.34902590	      0.00000000	      0.00000000	     31.80726839	      1.76773967	     -2.81628735	     15.96147401	      0.27858027	     -7.02270641	      0.00000000	      0.00000000	      4.90503882	     -0.23433275	     -2.79335148	      0.00000000	      0.00000000	      0.00000000	      0.00000000	      0.00000000	      0.00000000	      0.00000000	      0.00000000	      0.00000000	      0.00000000	      0.00000000	      0.00000000	      0.00000000	      0.00000000
